<mxfile host="app.diagrams.net" modified="2023-07-05T07:59:18.932Z" agent="Mozilla/5.0 (Windows NT 10.0; Win64; x64) AppleWebKit/537.36 (KHTML, like Gecko) Chrome/114.0.0.0 Safari/537.36" etag="PMf2u3terrDBrvDzSAj7" version="21.5.2" type="github">
  <diagram id="C5RBs43oDa-KdzZeNtuy" name="Page-1">
    <mxGraphModel dx="1050" dy="541" grid="1" gridSize="10" guides="1" tooltips="1" connect="1" arrows="1" fold="1" page="1" pageScale="1" pageWidth="827" pageHeight="1169" math="0" shadow="0">
      <root>
        <mxCell id="WIyWlLk6GJQsqaUBKTNV-0" />
        <mxCell id="WIyWlLk6GJQsqaUBKTNV-1" parent="WIyWlLk6GJQsqaUBKTNV-0" />
        <mxCell id="CAjIwiGMZuAr3p27-ff_-0" value="" style="rounded=0;html=1;jettySize=auto;orthogonalLoop=1;fontSize=11;endArrow=block;endFill=0;endSize=8;strokeWidth=1;shadow=0;labelBackgroundColor=none;edgeStyle=orthogonalEdgeStyle;entryX=0.5;entryY=0;entryDx=0;entryDy=0;" edge="1" parent="WIyWlLk6GJQsqaUBKTNV-1" source="CAjIwiGMZuAr3p27-ff_-1" target="CAjIwiGMZuAr3p27-ff_-11">
          <mxGeometry relative="1" as="geometry">
            <mxPoint x="451" y="190" as="targetPoint" />
          </mxGeometry>
        </mxCell>
        <mxCell id="CAjIwiGMZuAr3p27-ff_-1" value="创建样品单" style="rounded=1;whiteSpace=wrap;html=1;fontSize=12;glass=0;strokeWidth=1;shadow=0;" vertex="1" parent="WIyWlLk6GJQsqaUBKTNV-1">
          <mxGeometry x="351" y="90" width="120" height="40" as="geometry" />
        </mxCell>
        <mxCell id="CAjIwiGMZuAr3p27-ff_-2" style="edgeStyle=orthogonalEdgeStyle;rounded=0;orthogonalLoop=1;jettySize=auto;html=1;entryX=0.5;entryY=0;entryDx=0;entryDy=0;" edge="1" parent="WIyWlLk6GJQsqaUBKTNV-1" source="CAjIwiGMZuAr3p27-ff_-3" target="CAjIwiGMZuAr3p27-ff_-15">
          <mxGeometry relative="1" as="geometry" />
        </mxCell>
        <mxCell id="CAjIwiGMZuAr3p27-ff_-3" value="ERP发货" style="rounded=1;whiteSpace=wrap;html=1;fontSize=12;glass=0;strokeWidth=1;shadow=0;" vertex="1" parent="WIyWlLk6GJQsqaUBKTNV-1">
          <mxGeometry x="351" y="410" width="120" height="40" as="geometry" />
        </mxCell>
        <mxCell id="CAjIwiGMZuAr3p27-ff_-4" value="ERP商品同步&lt;br&gt;(SyncJkyGoodsQuery,&lt;br&gt;SyncJkySuitesQuery)" style="rounded=1;whiteSpace=wrap;html=1;fontSize=12;glass=0;strokeWidth=1;shadow=0;" vertex="1" parent="WIyWlLk6GJQsqaUBKTNV-1">
          <mxGeometry x="530" y="100" width="250" height="70" as="geometry" />
        </mxCell>
        <mxCell id="CAjIwiGMZuAr3p27-ff_-5" style="edgeStyle=orthogonalEdgeStyle;rounded=0;orthogonalLoop=1;jettySize=auto;html=1;entryX=0.5;entryY=0;entryDx=0;entryDy=0;" edge="1" parent="WIyWlLk6GJQsqaUBKTNV-1" source="CAjIwiGMZuAr3p27-ff_-6" target="CAjIwiGMZuAr3p27-ff_-3">
          <mxGeometry relative="1" as="geometry" />
        </mxCell>
        <mxCell id="CAjIwiGMZuAr3p27-ff_-6" value="同步样品单到ERP" style="rounded=1;whiteSpace=wrap;html=1;fontSize=12;glass=0;strokeWidth=1;shadow=0;" vertex="1" parent="WIyWlLk6GJQsqaUBKTNV-1">
          <mxGeometry x="351" y="340" width="120" height="30" as="geometry" />
        </mxCell>
        <mxCell id="CAjIwiGMZuAr3p27-ff_-7" style="edgeStyle=orthogonalEdgeStyle;rounded=0;orthogonalLoop=1;jettySize=auto;html=1;exitX=0.5;exitY=1;exitDx=0;exitDy=0;entryX=0.5;entryY=0;entryDx=0;entryDy=0;" edge="1" parent="WIyWlLk6GJQsqaUBKTNV-1" source="CAjIwiGMZuAr3p27-ff_-11" target="CAjIwiGMZuAr3p27-ff_-6">
          <mxGeometry relative="1" as="geometry">
            <mxPoint x="411" y="310" as="targetPoint" />
          </mxGeometry>
        </mxCell>
        <mxCell id="CAjIwiGMZuAr3p27-ff_-8" value="是" style="edgeLabel;html=1;align=center;verticalAlign=middle;resizable=0;points=[];" vertex="1" connectable="0" parent="CAjIwiGMZuAr3p27-ff_-7">
          <mxGeometry x="-0.5062" y="-3" relative="1" as="geometry">
            <mxPoint as="offset" />
          </mxGeometry>
        </mxCell>
        <mxCell id="CAjIwiGMZuAr3p27-ff_-9" style="edgeStyle=orthogonalEdgeStyle;rounded=0;orthogonalLoop=1;jettySize=auto;html=1;exitX=0;exitY=0.5;exitDx=0;exitDy=0;entryX=0.508;entryY=0;entryDx=0;entryDy=0;entryPerimeter=0;" edge="1" parent="WIyWlLk6GJQsqaUBKTNV-1" source="CAjIwiGMZuAr3p27-ff_-11">
          <mxGeometry relative="1" as="geometry">
            <mxPoint x="310.96000000000004" y="290" as="targetPoint" />
          </mxGeometry>
        </mxCell>
        <mxCell id="CAjIwiGMZuAr3p27-ff_-10" value="否" style="edgeLabel;html=1;align=center;verticalAlign=middle;resizable=0;points=[];" vertex="1" connectable="0" parent="CAjIwiGMZuAr3p27-ff_-9">
          <mxGeometry x="-0.425" y="-1" relative="1" as="geometry">
            <mxPoint as="offset" />
          </mxGeometry>
        </mxCell>
        <mxCell id="CAjIwiGMZuAr3p27-ff_-11" value="所有商家编码都在jky_goods_sku表" style="rhombus;whiteSpace=wrap;html=1;" vertex="1" parent="WIyWlLk6GJQsqaUBKTNV-1">
          <mxGeometry x="331" y="190" width="160" height="80" as="geometry" />
        </mxCell>
        <mxCell id="CAjIwiGMZuAr3p27-ff_-12" value="提醒商家编码不存在" style="rounded=1;whiteSpace=wrap;html=1;fontSize=12;glass=0;strokeWidth=1;shadow=0;" vertex="1" parent="WIyWlLk6GJQsqaUBKTNV-1">
          <mxGeometry x="250" y="290" width="120" height="40" as="geometry" />
        </mxCell>
        <mxCell id="CAjIwiGMZuAr3p27-ff_-13" value="" style="endArrow=none;dashed=1;html=1;dashPattern=1 3;strokeWidth=2;rounded=0;entryX=0;entryY=0.5;entryDx=0;entryDy=0;" edge="1" parent="WIyWlLk6GJQsqaUBKTNV-1" source="CAjIwiGMZuAr3p27-ff_-11" target="CAjIwiGMZuAr3p27-ff_-4">
          <mxGeometry width="50" height="50" relative="1" as="geometry">
            <mxPoint x="390" y="310" as="sourcePoint" />
            <mxPoint x="490" y="100" as="targetPoint" />
          </mxGeometry>
        </mxCell>
        <mxCell id="CAjIwiGMZuAr3p27-ff_-14" value="用来判断" style="edgeLabel;html=1;align=center;verticalAlign=middle;resizable=0;points=[];" vertex="1" connectable="0" parent="CAjIwiGMZuAr3p27-ff_-13">
          <mxGeometry x="-0.0034" y="8" relative="1" as="geometry">
            <mxPoint as="offset" />
          </mxGeometry>
        </mxCell>
        <mxCell id="CAjIwiGMZuAr3p27-ff_-15" value="ERP物流同步&lt;br style=&quot;border-color: var(--border-color);&quot;&gt;（SyncJkyLogistics）" style="rounded=1;whiteSpace=wrap;html=1;fontSize=12;glass=0;strokeWidth=1;shadow=0;" vertex="1" parent="WIyWlLk6GJQsqaUBKTNV-1">
          <mxGeometry x="351" y="500" width="120" height="40" as="geometry" />
        </mxCell>
        <mxCell id="CAjIwiGMZuAr3p27-ff_-17" value="用户提交吉客云信息" style="rounded=1;whiteSpace=wrap;html=1;fontSize=12;glass=0;strokeWidth=1;shadow=0;" vertex="1" parent="WIyWlLk6GJQsqaUBKTNV-1">
          <mxGeometry x="67.5" y="320" width="120" height="40" as="geometry" />
        </mxCell>
        <mxCell id="CAjIwiGMZuAr3p27-ff_-18" style="edgeStyle=orthogonalEdgeStyle;rounded=0;orthogonalLoop=1;jettySize=auto;html=1;entryX=0.5;entryY=1;entryDx=0;entryDy=0;exitX=0.5;exitY=0;exitDx=0;exitDy=0;" edge="1" parent="WIyWlLk6GJQsqaUBKTNV-1" source="CAjIwiGMZuAr3p27-ff_-22" target="CAjIwiGMZuAr3p27-ff_-21">
          <mxGeometry relative="1" as="geometry">
            <mxPoint x="128" y="200" as="sourcePoint" />
          </mxGeometry>
        </mxCell>
        <mxCell id="CAjIwiGMZuAr3p27-ff_-24" value="成功" style="edgeLabel;html=1;align=center;verticalAlign=middle;resizable=0;points=[];" vertex="1" connectable="0" parent="CAjIwiGMZuAr3p27-ff_-18">
          <mxGeometry x="-0.2317" relative="1" as="geometry">
            <mxPoint as="offset" />
          </mxGeometry>
        </mxCell>
        <mxCell id="CAjIwiGMZuAr3p27-ff_-20" style="edgeStyle=orthogonalEdgeStyle;rounded=0;orthogonalLoop=1;jettySize=auto;html=1;entryX=0;entryY=0.5;entryDx=0;entryDy=0;" edge="1" parent="WIyWlLk6GJQsqaUBKTNV-1" source="CAjIwiGMZuAr3p27-ff_-21" target="CAjIwiGMZuAr3p27-ff_-1">
          <mxGeometry relative="1" as="geometry" />
        </mxCell>
        <mxCell id="CAjIwiGMZuAr3p27-ff_-21" value="绑定成功&lt;br&gt;立即进行ERP商品同步" style="rounded=1;whiteSpace=wrap;html=1;fontSize=12;glass=0;strokeWidth=1;shadow=0;" vertex="1" parent="WIyWlLk6GJQsqaUBKTNV-1">
          <mxGeometry x="60" y="80" width="135" height="60" as="geometry" />
        </mxCell>
        <mxCell id="CAjIwiGMZuAr3p27-ff_-23" value="" style="edgeStyle=orthogonalEdgeStyle;rounded=0;orthogonalLoop=1;jettySize=auto;html=1;entryX=0.5;entryY=1;entryDx=0;entryDy=0;" edge="1" parent="WIyWlLk6GJQsqaUBKTNV-1" source="CAjIwiGMZuAr3p27-ff_-17" target="CAjIwiGMZuAr3p27-ff_-22">
          <mxGeometry relative="1" as="geometry">
            <mxPoint x="127.5" y="230" as="targetPoint" />
            <mxPoint x="128" y="300" as="sourcePoint" />
          </mxGeometry>
        </mxCell>
        <mxCell id="CAjIwiGMZuAr3p27-ff_-32" style="edgeStyle=orthogonalEdgeStyle;rounded=0;orthogonalLoop=1;jettySize=auto;html=1;exitX=0;exitY=0.5;exitDx=0;exitDy=0;entryX=0.5;entryY=0;entryDx=0;entryDy=0;" edge="1" parent="WIyWlLk6GJQsqaUBKTNV-1" source="CAjIwiGMZuAr3p27-ff_-22" target="CAjIwiGMZuAr3p27-ff_-29">
          <mxGeometry relative="1" as="geometry" />
        </mxCell>
        <mxCell id="CAjIwiGMZuAr3p27-ff_-33" value="失败" style="edgeLabel;html=1;align=center;verticalAlign=middle;resizable=0;points=[];" vertex="1" connectable="0" parent="CAjIwiGMZuAr3p27-ff_-32">
          <mxGeometry x="-0.208" relative="1" as="geometry">
            <mxPoint as="offset" />
          </mxGeometry>
        </mxCell>
        <mxCell id="CAjIwiGMZuAr3p27-ff_-22" value="校验吉客云信息" style="rhombus;whiteSpace=wrap;html=1;" vertex="1" parent="WIyWlLk6GJQsqaUBKTNV-1">
          <mxGeometry x="77.5" y="205" width="100" height="50" as="geometry" />
        </mxCell>
        <mxCell id="CAjIwiGMZuAr3p27-ff_-29" value="报错提醒" style="rounded=1;whiteSpace=wrap;html=1;fontSize=12;glass=0;strokeWidth=1;shadow=0;" vertex="1" parent="WIyWlLk6GJQsqaUBKTNV-1">
          <mxGeometry x="7.5" y="270" width="70" height="40" as="geometry" />
        </mxCell>
      </root>
    </mxGraphModel>
  </diagram>
</mxfile>
